<svg width="24" height="24" viewBox="0 0 24 24" fill="none" xmlns="http://www.w3.org/2000/svg">
<path d="M19.3248 9.46875C19.3248 9.46875 18.7818 16.2037 18.4668 19.0407C18.3168 20.3957 17.4798 21.1898 16.1088 21.2148C13.4998 21.2618 10.8878 21.2648 8.27979 21.2098C6.96079 21.1828 6.13779 20.3788 5.99079 19.0478C5.67379 16.1858 5.13379 9.46875 5.13379 9.46875" stroke="#120D3D" stroke-width="1.5" stroke-linecap="round" stroke-linejoin="round"/>
<path d="M20.708 6.23828H3.75" stroke="#120D3D" stroke-width="1.5" stroke-linecap="round" stroke-linejoin="round"/>
<path d="M17.4406 6.239C16.6556 6.239 15.9796 5.684 15.8256 4.915L15.5826 3.699C15.4326 3.138 14.9246 2.75 14.3456 2.75H10.1126C9.53358 2.75 9.02558 3.138 8.87558 3.699L8.63258 4.915C8.47858 5.684 7.80258 6.239 7.01758 6.239" stroke="#120D3D" stroke-width="1.5" stroke-linecap="round" stroke-linejoin="round"/>
</svg>
