<svg xmlns="http://www.w3.org/2000/svg" width="15.319" height="19.149" viewBox="0 0 15.319 19.149">
  <path id="shopping_bag_FILL0_wght400_GRAD0_opsz24" d="M161.915-860.851a1.845,1.845,0,0,1-1.352-.563,1.844,1.844,0,0,1-.562-1.352v-11.489a1.844,1.844,0,0,1,.562-1.352,1.844,1.844,0,0,1,1.352-.562h1.915a3.688,3.688,0,0,1,1.125-2.7,3.688,3.688,0,0,1,2.7-1.125,3.688,3.688,0,0,1,2.7,1.125,3.688,3.688,0,0,1,1.125,2.7H173.4a1.844,1.844,0,0,1,1.352.562,1.844,1.844,0,0,1,.563,1.352v11.489a1.844,1.844,0,0,1-.562,1.352,1.844,1.844,0,0,1-1.352.563Zm0-1.915H173.4v-11.489h-1.915v1.915a.926.926,0,0,1-.275.682.926.926,0,0,1-.682.275.926.926,0,0,1-.682-.275.926.926,0,0,1-.275-.682v-1.915h-3.83v1.915a.926.926,0,0,1-.275.682.926.926,0,0,1-.682.275.926.926,0,0,1-.682-.275.926.926,0,0,1-.275-.682v-1.915h-1.915Zm3.83-13.4h3.83a1.844,1.844,0,0,0-.563-1.352,1.844,1.844,0,0,0-1.352-.562,1.844,1.844,0,0,0-1.352.562A1.844,1.844,0,0,0,165.745-876.17Zm-3.83,13.4v0Z" transform="translate(-160 880)" fill="#fff"/>
</svg>
