<svg width="25" height="25" viewBox="0 0 25 25" fill="none" xmlns="http://www.w3.org/2000/svg">
<path d="M9.25684 22.2222C10.1198 22.2222 10.8193 21.5227 10.8193 20.6597C10.8193 19.7968 10.1198 19.0972 9.25684 19.0972C8.39389 19.0972 7.69434 19.7968 7.69434 20.6597C7.69434 21.5227 8.39389 22.2222 9.25684 22.2222Z" fill="black"/>
<path d="M18.75 22.2222C19.6129 22.2222 20.3125 21.5227 20.3125 20.6597C20.3125 19.7968 19.6129 19.0972 18.75 19.0972C17.8871 19.0972 17.1875 19.7968 17.1875 20.6597C17.1875 21.5227 17.8871 22.2222 18.75 22.2222Z" fill="black"/>
<path d="M22.9722 3.72917C22.9076 3.64951 22.8261 3.58515 22.7337 3.54072C22.6412 3.4963 22.5401 3.4729 22.4375 3.47222H7.97917L8.43056 4.86111H21.5278L19.6736 13.1944H9.25695L6.08334 3.14584C6.04901 3.03921 5.9894 2.94247 5.90959 2.86387C5.82978 2.78527 5.73214 2.72714 5.62501 2.69445L2.77778 1.81945C2.69024 1.79254 2.59825 1.78315 2.50707 1.7918C2.41589 1.80045 2.32731 1.82697 2.24638 1.86985C2.08293 1.95646 1.96059 2.10444 1.90626 2.28125C1.85192 2.45806 1.87005 2.64922 1.95666 2.81266C2.04326 2.9761 2.19125 3.09845 2.36806 3.15278L4.86112 3.91667L8.04862 13.9861L6.90973 14.9167L6.81945 15.0069C6.53774 15.3316 6.37806 15.7443 6.36792 16.174C6.35778 16.6037 6.49781 17.0235 6.7639 17.3611C6.95317 17.5913 7.19369 17.774 7.46621 17.8946C7.73874 18.0152 8.0357 18.0703 8.33334 18.0556H19.9236C20.1078 18.0556 20.2844 17.9824 20.4147 17.8522C20.5449 17.7219 20.6181 17.5453 20.6181 17.3611C20.6181 17.1769 20.5449 17.0003 20.4147 16.8701C20.2844 16.7398 20.1078 16.6667 19.9236 16.6667H8.22223C8.14226 16.6639 8.06435 16.6406 7.99602 16.599C7.92769 16.5574 7.87125 16.4988 7.83216 16.429C7.79306 16.3592 7.77263 16.2805 7.77284 16.2005C7.77304 16.1204 7.79388 16.0418 7.83334 15.9722L9.50695 14.5833H20.2292C20.3897 14.5873 20.5466 14.5354 20.6732 14.4367C20.7999 14.3379 20.8883 14.1983 20.9236 14.0417L23.125 4.31945C23.1461 4.21592 23.1433 4.10893 23.1169 4.00664C23.0904 3.90435 23.0409 3.80945 22.9722 3.72917Z" fill="black"/>
</svg>
