<svg width="22" height="31" viewBox="0 0 22 31" fill="none" xmlns="http://www.w3.org/2000/svg">
<path d="M21.5882 20.8707C21.7091 20.7736 21.8081 20.6522 21.8788 20.5145C21.9494 20.3769 21.9902 20.2259 21.9984 20.0716C22.0067 19.9172 21.9822 19.7628 21.9266 19.6185C21.871 19.4741 21.7855 19.3431 21.6756 19.2337C21.5658 19.1244 21.434 19.0394 21.289 18.984C21.144 18.9286 20.9889 18.9042 20.8337 18.9124C20.6786 18.9207 20.5269 18.9613 20.3886 19.0316C20.2503 19.102 20.1283 19.2005 20.0307 19.3207L12.0599 27.2426V1.05219C12.0461 0.768542 11.9232 0.50105 11.7165 0.305156C11.5099 0.10927 11.2355 0 10.9502 0C10.6648 0 10.3903 0.10927 10.1838 0.305156C9.97717 0.50105 9.85422 0.768542 9.84046 1.05219V27.2409L1.87998 19.3053C1.66991 19.1064 1.39112 18.9955 1.10123 18.9955C0.81135 18.9955 0.532553 19.1064 0.322492 19.3053C0.116001 19.5108 0 19.7895 0 20.0802C0 20.3708 0.116001 20.6496 0.322492 20.8552L10.1866 30.6714C10.2875 30.7753 10.4086 30.858 10.5424 30.9145C10.6761 30.9709 10.8199 31 10.9653 31C11.1106 31 11.2545 30.9709 11.3883 30.9145C11.522 30.858 11.643 30.7753 11.7441 30.6714L21.5882 20.8707Z" fill="black"/>
</svg>
