<svg xmlns="http://www.w3.org/2000/svg" width="21.425" height="19.657" viewBox="0 0 21.425 19.657">
  <path id="favorite_FILL0_wght400_GRAD0_opsz24" d="M90.713-834.342l-1.553-1.393q-2.7-2.437-4.472-4.2a29.633,29.633,0,0,1-2.812-3.173,10.087,10.087,0,0,1-1.46-2.584,7.205,7.205,0,0,1-.415-2.41,5.706,5.706,0,0,1,1.687-4.2,5.706,5.706,0,0,1,4.2-1.687,6.18,6.18,0,0,1,2.651.589,6.352,6.352,0,0,1,2.169,1.661,6.352,6.352,0,0,1,2.169-1.661A6.18,6.18,0,0,1,95.533-854a5.706,5.706,0,0,1,4.2,1.687,5.706,5.706,0,0,1,1.687,4.2,7.205,7.205,0,0,1-.415,2.41,10.086,10.086,0,0,1-1.46,2.584,29.632,29.632,0,0,1-2.812,3.173q-1.768,1.768-4.473,4.2Zm0-2.892q2.571-2.3,4.231-3.95a33.39,33.39,0,0,0,2.625-2.866,8.953,8.953,0,0,0,1.339-2.169,5.118,5.118,0,0,0,.375-1.888,3.633,3.633,0,0,0-1.071-2.678,3.634,3.634,0,0,0-2.678-1.071,4.136,4.136,0,0,0-2.33.71,3.65,3.65,0,0,0-1.473,1.808H89.695a3.65,3.65,0,0,0-1.473-1.808,4.136,4.136,0,0,0-2.33-.71,3.634,3.634,0,0,0-2.678,1.071,3.633,3.633,0,0,0-1.071,2.678,5.118,5.118,0,0,0,.375,1.888,8.954,8.954,0,0,0,1.339,2.169,33.4,33.4,0,0,0,2.625,2.866Q88.142-839.538,90.713-837.235ZM90.713-844.546Z" transform="translate(-80 854)" fill="#585858"/>
</svg>
