<svg width="22" height="22" viewBox="0 0 22 22" fill="none" xmlns="http://www.w3.org/2000/svg">
<path d="M19.19 21.227H19.0519C3.09665 20.3095 0.831239 6.84698 0.51457 2.7384C0.489054 2.41895 0.526821 2.09761 0.625709 1.79278C0.724596 1.48796 0.882659 1.20564 1.09084 0.962004C1.29902 0.718369 1.55323 0.518208 1.83891 0.372988C2.12458 0.227768 2.4361 0.140343 2.75562 0.115723H7.22959C7.55483 0.115409 7.87267 0.212762 8.14195 0.395174C8.41122 0.577585 8.61952 0.83665 8.73986 1.13881L9.97406 4.17559C10.0929 4.47078 10.1224 4.79438 10.0589 5.10618C9.99535 5.41799 9.84163 5.70427 9.61679 5.92945L7.88729 7.6752C8.15745 9.21043 8.89266 10.6256 9.99346 11.7293C11.0943 12.8331 12.5075 13.572 14.042 13.8462L15.804 12.1004C16.0326 11.8781 16.3216 11.728 16.6349 11.6688C16.9482 11.6096 17.2721 11.6439 17.566 11.7675L20.6271 12.9936C20.9248 13.1178 21.1787 13.3277 21.3565 13.5966C21.5344 13.8656 21.6282 14.1814 21.6259 14.5039V18.7911C21.6259 19.4372 21.3692 20.0567 20.9124 20.5136C20.4556 20.9704 19.836 21.227 19.19 21.227ZM2.95049 1.73967C2.73514 1.73967 2.52861 1.82522 2.37634 1.97749C2.22406 2.12977 2.13852 2.33629 2.13852 2.55164V2.6166C2.51202 7.42348 4.90735 18.7911 19.1412 19.6031C19.2479 19.6097 19.3548 19.5951 19.4559 19.5603C19.5569 19.5255 19.6501 19.4711 19.7301 19.4002C19.81 19.3293 19.8752 19.2433 19.9219 19.1471C19.9685 19.0509 19.9957 18.9465 20.0019 18.8398V14.5039L16.9408 13.2778L14.6104 15.5919L14.2207 15.5432C7.15651 14.6582 6.19838 7.594 6.19838 7.52092L6.14966 7.13117L8.45567 4.80081L7.23771 1.73967H2.95049Z" fill="#F8F8F8"/>
</svg>
