<svg width="14" height="14" viewBox="0 0 14 14" fill="none" xmlns="http://www.w3.org/2000/svg">
<path d="M3.9375 5.75586C3.9375 5.92991 4.00664 6.09683 4.12971 6.2199C4.25278 6.34297 4.4197 6.41211 4.59375 6.41211C4.7678 6.41211 4.93472 6.34297 5.05779 6.2199C5.18086 6.09683 5.25 5.92991 5.25 5.75586C5.25 5.58181 5.18086 5.41489 5.05779 5.29182C4.93472 5.16875 4.7678 5.09961 4.59375 5.09961C4.4197 5.09961 4.25278 5.16875 4.12971 5.29182C4.00664 5.41489 3.9375 5.58181 3.9375 5.75586ZM8.75 5.75586C8.75 5.92991 8.81914 6.09683 8.94221 6.2199C9.06528 6.34297 9.2322 6.41211 9.40625 6.41211C9.5803 6.41211 9.74722 6.34297 9.87029 6.2199C9.99336 6.09683 10.0625 5.92991 10.0625 5.75586C10.0625 5.58181 9.99336 5.41489 9.87029 5.29182C9.74722 5.16875 9.5803 5.09961 9.40625 5.09961C9.2322 5.09961 9.06528 5.16875 8.94221 5.29182C8.81914 5.41489 8.75 5.58181 8.75 5.75586ZM7 0.875C3.61758 0.875 0.875 3.61758 0.875 7C0.875 10.3824 3.61758 13.125 7 13.125C10.3824 13.125 13.125 10.3824 13.125 7C13.125 3.61758 10.3824 0.875 7 0.875ZM10.5957 10.5957C10.1281 11.0633 9.58398 11.4297 8.97832 11.6867C8.35352 11.952 7.6877 12.0859 7 12.0859C6.3123 12.0859 5.64648 11.952 5.02031 11.6867C4.41557 11.4313 3.86625 11.0608 3.40293 10.5957C2.93535 10.1281 2.56895 9.58398 2.31191 8.97832C2.04805 8.35352 1.91406 7.6877 1.91406 7C1.91406 6.3123 2.04805 5.64648 2.31328 5.02031C2.56868 4.41557 2.93923 3.86625 3.4043 3.40293C3.87188 2.93535 4.41602 2.56895 5.02168 2.31191C5.64648 2.04805 6.3123 1.91406 7 1.91406C7.6877 1.91406 8.35352 2.04805 8.97969 2.31328C9.58443 2.56868 10.1338 2.93923 10.5971 3.4043C11.0646 3.87188 11.4311 4.41602 11.6881 5.02168C11.952 5.64648 12.0859 6.3123 12.0859 7C12.0859 7.6877 11.952 8.35352 11.6867 8.97969C11.4316 9.5842 11.061 10.1331 10.5957 10.5957ZM9.07812 7.28711H8.42051C8.36309 7.28711 8.31387 7.33086 8.30977 7.38828C8.25781 8.06504 7.69043 8.59961 7 8.59961C6.30957 8.59961 5.74082 8.06504 5.69023 7.38828C5.68613 7.33086 5.63691 7.28711 5.57949 7.28711H4.92188C4.90704 7.28709 4.89236 7.29009 4.87872 7.29593C4.86508 7.30176 4.85277 7.31031 4.84254 7.32105C4.8323 7.3318 4.82437 7.34451 4.8192 7.35842C4.81404 7.37232 4.81176 7.38714 4.8125 7.40195C4.87266 8.55449 5.83105 9.47461 7 9.47461C8.16895 9.47461 9.12734 8.55449 9.1875 7.40195C9.18824 7.38714 9.18596 7.37232 9.1808 7.35842C9.17564 7.34451 9.1677 7.3318 9.15746 7.32105C9.14723 7.31031 9.13492 7.30176 9.12128 7.29593C9.10764 7.29009 9.09296 7.28709 9.07812 7.28711Z" fill="#FFC700"/>
</svg>
