<svg width="11" height="12" viewBox="0 0 11 12" fill="none" xmlns="http://www.w3.org/2000/svg">
<path id="Vector" d="M10.8428 0.845737C10.8428 0.621433 10.7605 0.406317 10.614 0.247711C10.4675 0.0891041 10.2688 0 10.0616 0L6.47912 0C6.27196 4.79003e-05 6.07329 0.0891835 5.92683 0.247801L0.458591 6.16796C0.312142 6.32656 0.229873 6.54164 0.229873 6.76589C0.229873 6.99015 0.312142 7.20523 0.458591 7.36383L4.04107 11.2424C4.18756 11.4009 4.38622 11.49 4.59336 11.49C4.8005 11.49 4.99916 11.4009 5.14565 11.2424L10.6139 5.32222C10.7604 5.16365 10.8427 4.94857 10.8428 4.72429V0.845737ZM8.10865 4.22868C7.79788 4.22868 7.49984 4.09503 7.28009 3.85712C7.06034 3.61921 6.93689 3.29653 6.93689 2.96008C6.93689 2.62362 7.06034 2.30095 7.28009 2.06304C7.49984 1.82513 7.79788 1.69147 8.10865 1.69147C8.41943 1.69147 8.71747 1.82513 8.93722 2.06304C9.15697 2.30095 9.28042 2.62362 9.28042 2.96008C9.28042 3.29653 9.15697 3.61921 8.93722 3.85712C8.71747 4.09503 8.41943 4.22868 8.10865 4.22868Z" fill="#CC0000"/>
</svg>
