<svg xmlns="http://www.w3.org/2000/svg" width="21.285" height="20.739" viewBox="0 0 21.285 20.739">
  <path id="person_FILL0_wght300_GRAD0_opsz24" d="M190.643-762.373a4.783,4.783,0,0,1-3.508-1.459,4.782,4.782,0,0,1-1.459-3.508,4.782,4.782,0,0,1,1.459-3.508,4.782,4.782,0,0,1,3.508-1.459,4.782,4.782,0,0,1,3.508,1.459,4.782,4.782,0,0,1,1.459,3.508,4.782,4.782,0,0,1-1.459,3.508A4.783,4.783,0,0,1,190.643-762.373ZM180-751.567v-3.154a3.523,3.523,0,0,1,.566-1.931,3.78,3.78,0,0,1,1.513-1.366,20.586,20.586,0,0,1,4.245-1.547,18.376,18.376,0,0,1,4.318-.516,18.376,18.376,0,0,1,4.318.516,20.586,20.586,0,0,1,4.245,1.547,3.78,3.78,0,0,1,1.513,1.366,3.523,3.523,0,0,1,.566,1.931v3.154Zm2.128-2.128h17.028v-1.026a1.39,1.39,0,0,0-.25-.8,1.89,1.89,0,0,0-.678-.6,18.238,18.238,0,0,0-3.74-1.369,16.166,16.166,0,0,0-3.846-.465,16.166,16.166,0,0,0-3.846.465,18.237,18.237,0,0,0-3.74,1.369,1.89,1.89,0,0,0-.678.6,1.391,1.391,0,0,0-.25.8Zm8.514-10.806a2.733,2.733,0,0,0,2-.834,2.733,2.733,0,0,0,.834-2,2.733,2.733,0,0,0-.834-2,2.733,2.733,0,0,0-2-.834,2.733,2.733,0,0,0-2,.834,2.733,2.733,0,0,0-.834,2,2.733,2.733,0,0,0,.834,2A2.733,2.733,0,0,0,190.643-764.5ZM190.643-767.34ZM190.643-753.7Z" transform="translate(-180.001 772.306)" fill="#585858"/>
</svg>
