<svg id="Group_2" data-name="Group 2" xmlns="http://www.w3.org/2000/svg" xmlns:xlink="http://www.w3.org/1999/xlink" width="101.042" height="81.538" viewBox="0 0 101.042 81.538">
  <defs>
    <clipPath id="clip-path">
      <rect id="Rectangle_4" data-name="Rectangle 4" width="101.042" height="81.538" fill="#585858"/>
    </clipPath>
  </defs>
  <g id="Group_1" data-name="Group 1" clip-path="url(#clip-path)">
    <path id="Path_1" data-name="Path 1" d="M62.285,88.714a2.635,2.635,0,0,1-.122.269q-.3.518-.6,1.034a1.836,1.836,0,0,1-.183.218c-.077-.074-.18-.13-.23-.222a1.54,1.54,0,0,0-.863-.783,1.341,1.341,0,0,0-.567.94.621.621,0,0,0,.718.766c.278-.033.553-.106.89-.175-.083.376-.154.7-.23,1.052l-.79-.062a25.677,25.677,0,0,0,.021,5.428,3.534,3.534,0,0,0-1.941,2.485c-.186.068-.3.026-.311-.142a4.841,4.841,0,0,1,0-.644c.089-1.241.228-2.482.269-3.729.036-1.1-.036-2.2-.059-3.307a.781.781,0,0,0-.048-.186,3.232,3.232,0,0,1-.378-.048.159.159,0,0,1-.06-.292.086.086,0,0,1,.036-.021c.417-.095.5-.453.632-.783A3.352,3.352,0,0,1,59.484,89.2c.364-.3.754-.57,1.144-.833a.491.491,0,0,1,.354-.071c.423.116.836.264,1.3.417" transform="translate(-11.873 -18.159)" fill="#585858"/>
    <path id="Path_2" data-name="Path 2" d="M49.023,96.468a6.212,6.212,0,0,0,2.37-.163c-.08.411-.145.757-.222,1.156a16.4,16.4,0,0,0-4.5.05,40.966,40.966,0,0,0,.369-7.857c-.234-.23-.67-.062-.715-.5L49.334,89c-.116,1.242-.254,2.474-.343,3.709a16.8,16.8,0,0,0,.033,3.756" transform="translate(-9.529 -18.306)" fill="#585858"/>
    <path id="Path_3" data-name="Path 3" d="M66.559,93.853c.215.139.487.053.54.373a13.684,13.684,0,0,0-2.73.4,4.056,4.056,0,0,0,.141,1.6.922.922,0,0,0,.139.264c.175.233.307.251.535.064a3.574,3.574,0,0,0,.937-1.161c.089-.165.177-.254.384-.121a1.458,1.458,0,0,1-.06.277,6.132,6.132,0,0,1-1.572,2.279.707.707,0,0,1-.665.186,2.045,2.045,0,0,1-1.776-1.782,3.407,3.407,0,0,1,.183-1.9,4.308,4.308,0,0,1,2.946-2.771c.053-.012.112-.03.168-.039.479-.076.538-.021.591.458.068.624.156,1.247.237,1.871M65,92.351c-.038-.012-.077-.024-.115-.038a3.393,3.393,0,0,0-.505,1.885l.62-.207Z" transform="translate(-12.829 -18.819)" fill="#585858"/>
    <path id="Path_4" data-name="Path 4" d="M55.739,91.52a18.269,18.269,0,0,0-.491,5.042,6.371,6.371,0,0,0,.886-1.886c.075.095.16.16.151.2a6.547,6.547,0,0,1-.907,2.574,1.655,1.655,0,0,1-.1.136c-.23.254-.429.517-.86.419a1.169,1.169,0,0,1-.99-.774,2.334,2.334,0,0,1-.106-.721c.024-.729.079-1.459.112-2.189.033-.713.048-1.427.068-2.087-.26-.269-.671-.133-.84-.517l3.08-.2" transform="translate(-10.831 -18.824)" fill="#585858"/>
    <path id="Path_5" data-name="Path 5" d="M54.942,87.959a3.655,3.655,0,0,1,.972,1.025,5.708,5.708,0,0,1-1.173,1.288,3.742,3.742,0,0,1-.981-1.28,3.361,3.361,0,0,1,1.182-1.034" transform="translate(-11.057 -18.091)" fill="#585858"/>
    <path id="Path_6" data-name="Path 6" d="M52.525,43.131a4.38,4.38,0,0,0-.314-.4Q43.7,34.212,35.178,25.695A6.256,6.256,0,0,1,33.4,22.471a5.938,5.938,0,0,1,4.619-6.93,12.242,12.242,0,0,1,1.578-.118c.1-.006.2.009.3.009l10.757.125c.086,0,.168,0,.331,0-.325-.467-.635-.866-.893-1.3a11.739,11.739,0,0,1-.741-1.406,10.873,10.873,0,0,1-.527-1.451,11.151,11.151,0,0,1-.316-1.508,12.484,12.484,0,0,1-.1-1.589,11.226,11.226,0,0,1,.11-1.539,11.163,11.163,0,0,1,.346-1.549,10.928,10.928,0,0,1,.541-1.445,11.4,11.4,0,0,1,.742-1.357A12.012,12.012,0,0,1,51.1,1.141c.33-.4.7-.751,1.076-1.141.11.088.2.156.278.233q8.617,8.6,17.234,17.2a5.868,5.868,0,0,1,1.79,4.37,5.943,5.943,0,0,1-5.05,5.769,6.887,6.887,0,0,1-.984.074q-4.3.008-8.6-.006a1.688,1.688,0,0,1-.547-.074A.769.769,0,0,1,56.4,26.1a2.068,2.068,0,0,1,.469-.039q2,0,4,0h.535c-.089-.122-.124-.192-.177-.249Q57,21.584,52.773,17.355a.587.587,0,0,0-.446-.2q-4.321-.044-8.647-.1a2.475,2.475,0,0,0-.292.024c.16.165.269.287.381.4q4.659,4.654,9.312,9.309a10.641,10.641,0,0,1,3.053,5.665A10.955,10.955,0,0,1,53.225,42.4c-.207.218-.416.431-.7.727M52.165,2.323a1.744,1.744,0,0,0-.136.153,9.385,9.385,0,0,0-1.759,8.233,9.692,9.692,0,0,0,2.843,4.77.547.547,0,0,0,.428.139q5.874.08,11.747.162h.331Q58.9,9.06,52.165,2.323M52.516,40.8c.1-.1.18-.174.249-.26a9.264,9.264,0,0,0,2.006-5.3,9.456,9.456,0,0,0-2.8-7.364.824.824,0,0,0-.638-.261q-5.718,0-11.44-.033h-.455c-.014.033-.029.06-.041.089q6.552,6.56,13.124,13.127m-2.529-14.77c.024-.039.044-.08.065-.122-.122-.1-.252-.192-.361-.3q-1.919-1.911-3.833-3.827C44.673,20.6,43.5,19.4,42.3,18.23A4.139,4.139,0,0,0,38.1,17.137a4.351,4.351,0,0,0-2.06,7.178c.455.493.955.948,1.415,1.442a.845.845,0,0,0,.677.272q5.741,0,11.478,0Zm4.923-8.81c.115.127.183.213.257.292q3.647,3.644,7.3,7.291a4.267,4.267,0,0,0,3.786,1.2,4.368,4.368,0,0,0-.724-8.676q-5.138-.062-10.275-.13c-.092,0-.187.012-.34.021" transform="translate(-6.846)" fill="#585858"/>
    <path id="Path_7" data-name="Path 7" d="M119.757,59.74V60.3h-1.6v4.178h-.647V60.3h-1.6V59.74Z" transform="translate(-23.841 -12.287)" fill="#585858"/>
    <path id="Path_8" data-name="Path 8" d="M121.476,59.74h.918l1.363,4.007,1.353-4.007h.916v4.743h-.614v-2.8c0-.095,0-.257.006-.478s.006-.464.006-.721l-1.354,4h-.635l-1.365-4v.148c0,.115,0,.289.009.529s.012.414.012.523v2.8h-.615Z" transform="translate(-24.985 -12.287)" fill="#585858"/>
    <path id="Path_9" data-name="Path 9" d="M46.013,67.118c.012-.254.021-.481.033-.726h3.685V80.275H46.052c-.012-.154-.024-.305-.036-.493a7.2,7.2,0,0,1-5.694.26,6.778,6.778,0,0,1-3.31-2.633,7.073,7.073,0,0,1,9-10.29m-6.466,6.339a3.321,3.321,0,1,0,3.327-3.331,3.3,3.3,0,0,0-3.327,3.331" transform="translate(-7.367 -13.655)" fill="#585858"/>
    <path id="Path_10" data-name="Path 10" d="M79.7,60.043c1.2-.4,2.405-.8,3.682-1.226.017.606.009,1.158.009,1.708s0,1.118,0,1.676v3.348a1.8,1.8,0,0,0,.3-.074,6.288,6.288,0,0,1,8.4,4.631,5.021,5.021,0,0,1,.122.981c.011,2.465.009,4.932.009,7.4a2.234,2.234,0,0,1-.018.23h-3.7V78.2c0-2.184.006-4.362-.006-6.54a3.913,3.913,0,0,0-.145-1.1,2.543,2.543,0,0,0-4.962.766q0,3.422,0,6.841v.506a26.768,26.768,0,0,1-3.694.038Z" transform="translate(-16.393 -12.097)" fill="#585858"/>
    <path id="Path_11" data-name="Path 11" d="M30.385,75.253H20.728A2.973,2.973,0,0,0,23.189,76.8a3.358,3.358,0,0,0,2.743-1.034c.875.825,1.728,1.628,2.606,2.453a2.142,2.142,0,0,1-.222.26,7.039,7.039,0,0,1-5,1.936,6.972,6.972,0,1,1,6.963-8.429,6.471,6.471,0,0,1,.136,1.064c.023.674.012,1.35.012,2.022a1.173,1.173,0,0,1-.042.183M26.216,71.63c.012-.036.026-.065.038-.1a3.313,3.313,0,0,0-3.076-1.454,3.207,3.207,0,0,0-2.52,1.551Z" transform="translate(-3.392 -13.67)" fill="#585858"/>
    <path id="Path_12" data-name="Path 12" d="M100.622,66.6c1.084,2.551,2.169,5.107,3.295,7.757,1.055-2.639,2.075-5.189,3.1-7.761h3.9c-.038.376-6.424,16.36-7.444,18.627H99.559c.056-.163.1-.3.15-.423.721-1.794,1.439-3.59,2.172-5.375a.9.9,0,0,0-.018-.774q-2.549-5.732-5.08-11.469c-.079-.177-.156-.361-.254-.582Z" transform="translate(-19.854 -13.697)" fill="#585858"/>
    <path id="Path_13" data-name="Path 13" d="M6.168,70.031c-.257,0-.411,0-.562,0-.747-.012-1.495.021-2.237-.048A3.354,3.354,0,0,1,.423,66.627c.3-.086,10.307-.115,11.061-.036a2.823,2.823,0,0,1,.033.322c0,.615-.012,1.232.006,1.85a1.053,1.053,0,0,1-.257.739Q8.494,72.96,5.737,76.426c-.1.118-.189.242-.325.419.171.012.277.024.387.027.756,0,1.519.014,2.278,0a3.453,3.453,0,0,1,3.431,3.25.9.9,0,0,1-.018.187H.006v-1c0-.417.009-.833-.006-1.247a.883.883,0,0,1,.218-.621q2.752-3.417,5.5-6.844c.129-.16.257-.325.452-.57" transform="translate(0 -13.687)" fill="#585858"/>
    <path id="Path_14" data-name="Path 14" d="M67.037,62.227c1.22-.407,2.45-.816,3.721-1.242V65.4h3.9v3.473H70.8c-.012.165-.033.29-.033.411,0,.845-.006,1.69,0,2.539a3.909,3.909,0,0,0,3.6,3.913l.248.017a24.942,24.942,0,0,1,.027,3.664,4.207,4.207,0,0,1-1.477-.1A7.675,7.675,0,0,1,67.1,72.892a8.048,8.048,0,0,1-.071-1.158q-.008-4.58,0-9.164c0-.1.009-.2.015-.343" transform="translate(-13.785 -12.543)" fill="#585858"/>
    <path id="Path_15" data-name="Path 15" d="M57.582,60.049q1.817-.6,3.647-1.206c.1.361.115,19.445.024,19.886H57.582Z" transform="translate(-11.843 -12.103)" fill="#585858"/>
  </g>
</svg>
