<svg width="39" height="44" viewBox="0 0 39 44" fill="none" xmlns="http://www.w3.org/2000/svg">
<path d="M19.2311 43.131C19.1342 42.9917 19.0294 42.8581 18.9171 42.731C13.2431 37.0517 7.5654 31.373 1.88407 25.695C0.981429 24.823 0.361928 23.6997 0.106068 22.471C-0.187051 20.9409 0.132917 19.3569 0.996979 18.0605C1.86104 16.7641 3.19997 15.8592 4.72507 15.541C5.24797 15.4677 5.77507 15.4283 6.30307 15.423C6.40307 15.417 6.50307 15.432 6.60307 15.432L17.3601 15.557C17.4461 15.557 17.5281 15.557 17.6911 15.557C17.3661 15.09 17.0561 14.691 16.7981 14.257C16.5196 13.8056 16.272 13.3359 16.0571 12.851C15.8472 12.3804 15.6711 11.8955 15.5301 11.4C15.3901 10.9052 15.2845 10.4014 15.2141 9.892C15.147 9.365 15.1136 8.83426 15.1141 8.303C15.1154 7.78808 15.1521 7.27387 15.2241 6.764C15.3025 6.24011 15.4181 5.72247 15.5701 5.215C15.7161 4.72119 15.8969 4.23832 16.1111 3.77C16.3274 3.30139 16.5753 2.84801 16.8531 2.413C17.1423 1.96843 17.4607 1.5435 17.8061 1.141C18.1361 0.741 18.5061 0.39 18.8821 0C18.9921 0.088 19.0821 0.156 19.1601 0.233C24.9047 5.96633 30.6494 11.6997 36.3941 17.433C36.9789 17.9977 37.4399 18.6777 37.7481 19.43C38.0562 20.1823 38.2047 20.9903 38.1841 21.803C38.1589 23.206 37.638 24.5549 36.7138 25.6108C35.7895 26.6666 34.5214 27.3614 33.1341 27.572C32.8083 27.6202 32.4794 27.6449 32.1501 27.646C29.2834 27.6513 26.4167 27.6493 23.5501 27.64C23.3649 27.6455 23.1801 27.6205 23.0031 27.566C22.8498 27.5067 22.7196 27.3998 22.6315 27.261C22.5434 27.1223 22.5021 26.9589 22.5137 26.795C22.5252 26.6311 22.5889 26.4751 22.6955 26.35C22.8021 26.225 22.946 26.1373 23.1061 26.1C23.2604 26.0692 23.4178 26.0561 23.5751 26.061C24.9084 26.061 26.2417 26.061 27.5751 26.061H28.1101C28.0211 25.939 27.9861 25.869 27.9331 25.812C25.1151 22.9933 22.2971 20.1743 19.4791 17.355C19.4235 17.2916 19.3548 17.2409 19.2779 17.2064C19.2009 17.1719 19.1174 17.1543 19.0331 17.155C16.1524 17.1257 13.2701 17.0923 10.3861 17.055C10.2883 17.0572 10.1908 17.0652 10.0941 17.079C10.2541 17.244 10.3631 17.366 10.4751 17.479C13.5811 20.5817 16.6851 23.6847 19.7871 26.788C21.365 28.316 22.4315 30.2948 22.8401 32.453C23.2138 34.2223 23.1438 36.0566 22.6362 37.7922C22.1286 39.5279 21.1993 41.1109 19.9311 42.4C19.7241 42.618 19.5151 42.831 19.2311 43.127M18.8711 2.323C18.8228 2.37129 18.7774 2.42238 18.7351 2.476C17.821 3.61655 17.186 4.95483 16.8806 6.3842C16.5752 7.81356 16.6079 9.2945 16.9761 10.709C17.4382 12.5423 18.4264 14.2003 19.8191 15.479C19.8765 15.5312 19.9443 15.5706 20.0181 15.5946C20.0919 15.6185 20.1699 15.6265 20.2471 15.618C24.1631 15.6713 28.0787 15.7253 31.9941 15.78H32.3251C27.8457 11.3 23.3611 6.81433 18.8711 2.323ZM19.2221 40.8C19.3221 40.7 19.4021 40.626 19.4711 40.54C20.6769 39.0262 21.3784 37.1728 21.4771 35.24C21.5672 33.8834 21.3637 32.5233 20.8805 31.2525C20.3973 29.9817 19.6457 28.83 18.6771 27.876C18.5959 27.789 18.4968 27.7206 18.3867 27.6756C18.2765 27.6305 18.1579 27.6099 18.0391 27.615C14.2271 27.615 10.4137 27.604 6.59907 27.582H6.14407C6.13007 27.615 6.11507 27.642 6.10307 27.671C10.4711 32.0443 14.8457 36.42 19.2271 40.798M16.6981 26.028C16.7221 25.989 16.7421 25.948 16.7631 25.906C16.6411 25.806 16.5111 25.714 16.4021 25.606C15.1227 24.332 13.8451 23.0563 12.5691 21.779C11.3791 20.6 10.2061 19.4 9.00607 18.23C8.47577 17.6769 7.80235 17.2819 7.06081 17.0889C6.31926 16.8959 5.5387 16.9126 4.80607 17.137C4.07896 17.3301 3.41436 17.7085 2.87714 18.2352C2.33992 18.7618 1.94844 19.4188 1.74091 20.1419C1.53338 20.8651 1.5169 21.6296 1.69307 22.361C1.86924 23.0924 2.23204 23.7657 2.74607 24.315C3.20107 24.808 3.70107 25.263 4.16107 25.757C4.24642 25.85 4.35154 25.9228 4.4687 25.9698C4.58585 26.0169 4.71207 26.0371 4.83807 26.029C8.6654 26.029 12.4914 26.029 16.3161 26.029L16.6981 26.028ZM21.6211 17.218C21.7361 17.345 21.8041 17.431 21.8781 17.51C24.3094 19.9393 26.7427 22.3697 29.1781 24.801C29.6646 25.293 30.2634 25.6593 30.9229 25.8683C31.5825 26.0774 32.283 26.1229 32.9641 26.001C34.045 25.82 35.0184 25.2392 35.6911 24.3739C36.3638 23.5086 36.6866 22.422 36.5954 21.3298C36.5043 20.2375 36.0059 19.2195 35.1991 18.4776C34.3923 17.7358 33.3361 17.3244 32.2401 17.325C28.8147 17.2837 25.3897 17.2403 21.9651 17.195C21.8731 17.195 21.7781 17.207 21.6251 17.216" fill="#585858"/>
</svg>
